STARTFONT 2.1
COMMENT Recovered from 31vr.qfasl (MIT CADR System 46 serialized QFASL FONT object)
FONT MIT-CADR-QFASL-31VR
SIZE 31 72 72
FONTBOUNDINGBOX 25 31 0 -6
STARTPROPERTIES 2
FONT_ASCENT 25
FONT_DESCENT 6
ENDPROPERTIES
CHARS 128
STARTCHAR C0000
ENCODING -1 0
SWIDTH 0 0
DWIDTH 0 0
BBX 25 31 0 -6
BITMAP
00000000
00000000
00000000
00000000
00000000
00000000
00000000
00000000
00000000
00000000
00000000
00000000
00000000
00000000
00000000
00000000
00000000
00000000
00000000
00000000
00000000
00000000
00000000
00000000
00000000
00000000
00000000
00000000
00000000
00000000
00000000
ENDCHAR
STARTCHAR C0001
ENCODING -1 1
SWIDTH 452 0
DWIDTH 14 0
BBX 25 31 0 -6
BITMAP
00000000
00000000
00000000
06000000
06000000
06000000
06000000
06000000
06000000
06000000
06000000
06000000
06000000
06000000
06000000
06000000
06000000
06000000
C6300000
E6700000
76E00000
3FC00000
1F800000
0F000000
06000000
00000000
00000000
00000000
00000000
00000000
00000000
ENDCHAR
STARTCHAR C0002
ENCODING -1 2
SWIDTH 839 0
DWIDTH 26 0
BBX 25 31 0 -6
BITMAP
00000000
00000000
00000000
00000000
00000000
00000000
00000000
00000000
00000000
00000C00
00001800
00003000
00007000
00006000
1F00C000
3FC1C000
60F38000
C03F8000
C01F0000
C01E0000
C01C0000
C0760000
60E60600
3F83FC00
1F01F800
00000000
00000000
00000000
00000000
00000000
00000000
ENDCHAR
STARTCHAR C0003
ENCODING -1 3
SWIDTH 742 0
DWIDTH 23 0
BBX 25 31 0 -6
BITMAP
00000000
00000000
0007E000
000FF000
001C7000
00383000
00703000
00E03000
00E07000
00C0E000
0180C000
0181C000
03838000
03078000
07078000
06038000
0E01C000
0C00E000
1C007000
18003000
38003000
38C07000
30E0E000
70FFC000
701F0000
70000000
E0000000
E0000000
E0000000
E0000000
00000000
ENDCHAR
STARTCHAR C0004
ENCODING -1 4
SWIDTH 710 0
DWIDTH 22 0
BBX 25 31 0 -6
BITMAP
00000000
00000000
00000000
00000000
00000000
00000000
00000000
00000000
00000000
00E00000
01F00000
01B00000
03B80000
03180000
071C0000
060C0000
0E0E0000
0C060000
1C070000
18030000
38038000
30018000
7001C000
6000C000
E000E000
00000000
00000000
00000000
00000000
00000000
00000000
ENDCHAR
STARTCHAR C0005
ENCODING -1 5
SWIDTH 452 0
DWIDTH 14 0
BBX 25 31 0 -6
BITMAP
00000000
00000000
00000000
00000000
00000000
00000000
00000000
00000000
00000000
00000000
00000000
00000000
00000000
FFE00000
FFE00000
00E00000
00600000
00600000
00600000
00600000
00600000
00000000
00000000
00000000
00000000
00000000
00000000
00000000
00000000
00000000
00000000
ENDCHAR
STARTCHAR C0006
ENCODING -1 6
SWIDTH 452 0
DWIDTH 14 0
BBX 25 31 0 -6
BITMAP
00000000
00000000
00000000
00000000
00000000
03C00000
07800000
0E000000
1C000000
38000000
70000000
70000000
F0000000
FFE00000
FFE00000
F0000000
70000000
70000000
38000000
1C000000
0E000000
07800000
03C00000
00000000
00000000
00000000
00000000
00000000
00000000
00000000
00000000
ENDCHAR
STARTCHAR C0007
ENCODING -1 7
SWIDTH 677 0
DWIDTH 21 0
BBX 25 31 0 -6
BITMAP
00000000
00000000
00000000
00000000
00000000
00000000
00000000
00000000
00000000
00000000
FFFF0000
FFFF8000
381DC000
381C0000
381C0000
381C0000
381C0000
381C0000
381C0000
381C0000
381C0000
381C0000
381C0000
381C0000
F81E0000
000F0000
00000000
00000000
00000000
00000000
00000000
ENDCHAR
STARTCHAR C0008
ENCODING -1 8
SWIDTH 581 0
DWIDTH 18 0
BBX 25 31 0 -6
BITMAP
00000000
00000000
00000000
00000000
C0000000
E0000000
F0000000
38000000
1C000000
0C000000
0E000000
06000000
07000000
07000000
07000000
0F800000
19800000
31C00000
70C00000
60E00000
E0600000
C0700000
C0380000
C01C0000
000C0000
00000000
00000000
00000000
00000000
00000000
00000000
ENDCHAR
STARTCHAR C0009
ENCODING -1 9
SWIDTH 32 0
DWIDTH 1 0
BBX 25 31 0 -6
BITMAP
00000000
00000000
00000000
00000000
00000000
00000000
00000000
00000000
00000000
00000000
00000000
00000000
00000000
00000000
00000000
00000000
00000000
00000000
00000000
00000000
00000000
00000000
00000000
00000000
00000000
00000000
00000000
00000000
00000000
00000000
00000000
ENDCHAR
STARTCHAR C000A
ENCODING -1 10
SWIDTH 32 0
DWIDTH 1 0
BBX 25 31 0 -6
BITMAP
00000000
00000000
00000000
00000000
00000000
00000000
00000000
00000000
00000000
00000000
00000000
00000000
00000000
00000000
00000000
00000000
00000000
00000000
00000000
00000000
00000000
00000000
00000000
00000000
00000000
00000000
00000000
00000000
00000000
00000000
00000000
ENDCHAR
STARTCHAR C000B
ENCODING -1 11
SWIDTH 452 0
DWIDTH 14 0
BBX 25 31 0 -6
BITMAP
00000000
00000000
00000000
06000000
0F000000
1F800000
3FC00000
76E00000
E6700000
C6300000
06000000
06000000
06000000
06000000
06000000
06000000
06000000
06000000
06000000
06000000
06000000
06000000
06000000
06000000
06000000
00000000
00000000
00000000
00000000
00000000
00000000
ENDCHAR
STARTCHAR C000C
ENCODING -1 12
SWIDTH 32 0
DWIDTH 1 0
BBX 25 31 0 -6
BITMAP
00000000
00000000
00000000
00000000
00000000
00000000
00000000
00000000
00000000
00000000
00000000
00000000
00000000
00000000
00000000
00000000
00000000
00000000
00000000
00000000
00000000
00000000
00000000
00000000
00000000
00000000
00000000
00000000
00000000
00000000
00000000
ENDCHAR
STARTCHAR C000D
ENCODING -1 13
SWIDTH 32 0
DWIDTH 1 0
BBX 25 31 0 -6
BITMAP
00000000
00000000
00000000
00000000
00000000
00000000
00000000
00000000
00000000
00000000
00000000
00000000
00000000
00000000
00000000
00000000
00000000
00000000
00000000
00000000
00000000
00000000
00000000
00000000
00000000
00000000
00000000
00000000
00000000
00000000
00000000
ENDCHAR
STARTCHAR C000E
ENCODING -1 14
SWIDTH 903 0
DWIDTH 28 0
BBX 25 31 0 -6
BITMAP
00000000
00000000
00000000
00000000
00000000
00000000
00000000
00000000
00000000
0FC0FC00
18618600
30330300
701E0380
701E0380
701E0380
701E0380
701E0380
701E0380
701E0380
30330300
18738600
0FE1FC00
00000000
00000000
00000000
00000000
00000000
00000000
00000000
00000000
00000000
ENDCHAR
STARTCHAR C000F
ENCODING -1 15
SWIDTH 548 0
DWIDTH 17 0
BBX 25 31 0 -6
BITMAP
00000000
1C000000
0E000000
07000000
03800000
01C00000
00E00000
00700000
00380000
001C0000
001C0000
001C0000
001C0000
3FFC0000
7FFC0000
E01C0000
C00C0000
C00C0000
C00C0000
C00C0000
C00C0000
C01C0000
E0180000
7FF00000
3FE00000
00000000
00000000
00000000
00000000
00000000
00000000
ENDCHAR
STARTCHAR C0010
ENCODING -1 16
SWIDTH 677 0
DWIDTH 21 0
BBX 25 31 0 -6
BITMAP
00000000
00000000
00000000
00000000
00000000
00000000
00000000
00000000
00000000
0FFFC000
1FFFC000
3C000000
78000000
70000000
70000000
70000000
70000000
78000000
3C000000
1FFFC000
0FFFC000
00000000
00000000
00000000
00000000
00000000
00000000
00000000
00000000
00000000
00000000
ENDCHAR
STARTCHAR C0011
ENCODING -1 17
SWIDTH 710 0
DWIDTH 22 0
BBX 25 31 0 -6
BITMAP
00000000
00000000
00000000
00000000
00000000
00000000
00000000
00000000
00000000
3FFF0000
3FFF8000
0003C000
0001E000
0000E000
0000E000
0000E000
0000E000
0001E000
0003C000
3FFF8000
3FFF0000
00000000
00000000
00000000
00000000
00000000
00000000
00000000
00000000
00000000
00000000
ENDCHAR
STARTCHAR C0012
ENCODING -1 18
SWIDTH 516 0
DWIDTH 16 0
BBX 25 31 0 -6
BITMAP
00000000
00000000
00000000
00000000
1FC00000
3FE00000
60300000
C0180000
C0180000
C0180000
C0180000
C0180000
C0180000
C0180000
C0180000
C0180000
C0180000
C0180000
C0180000
C0180000
C0180000
C0180000
C0180000
C0180000
C0180000
00000000
00000000
00000000
00000000
00000000
00000000
ENDCHAR
STARTCHAR C0013
ENCODING -1 19
SWIDTH 516 0
DWIDTH 16 0
BBX 25 31 0 -6
BITMAP
00000000
00000000
00000000
00000000
C0180000
C0180000
C0180000
C0180000
C0180000
C0180000
C0180000
C0180000
C0180000
C0180000
C0180000
C0180000
C0180000
C0180000
C0180000
C0180000
C0180000
C0180000
60300000
3FE00000
1FC00000
00000000
00000000
00000000
00000000
00000000
00000000
ENDCHAR
STARTCHAR C0014
ENCODING -1 20
SWIDTH 710 0
DWIDTH 22 0
BBX 25 31 0 -6
BITMAP
00000000
00000000
00000000
FE0FE000
38038000
38038000
18030000
18070000
1C070000
0FFE0000
0FFE0000
0C0E0000
061C0000
03180000
061C0000
03380000
01B80000
01F00000
01F00000
00F00000
00E00000
00E00000
00600000
00600000
00400000
00000000
00000000
00000000
00000000
00000000
00000000
ENDCHAR
STARTCHAR C0015
ENCODING -1 21
SWIDTH 581 0
DWIDTH 18 0
BBX 25 31 0 -6
BITMAP
00000000
00000000
00000000
7FFE0000
7FF80000
60380000
60380000
00380000
00380000
00380000
02380000
02380000
03380000
03F80000
03F80000
03380000
02380000
02380000
00380000
00380000
00380000
C0380000
C0380000
FFF80000
FFFE0000
00000000
00000000
00000000
00000000
00000000
00000000
ENDCHAR
STARTCHAR C0016
ENCODING -1 22
SWIDTH 613 0
DWIDTH 19 0
BBX 25 31 0 -6
BITMAP
00000000
00000000
00000000
00000000
00000000
00000000
00000000
0FF80000
1FFC0000
380E0000
7C1F0000
6C1B0000
66330000
63E30000
61C30000
61C30000
63E30000
66330000
6C1B0000
7C1F0000
380E0000
1FFC0000
0FF80000
00000000
00000000
00000000
00000000
00000000
00000000
00000000
00000000
ENDCHAR
STARTCHAR C0017
ENCODING -1 23
SWIDTH 677 0
DWIDTH 21 0
BBX 25 31 0 -6
BITMAP
00000000
00000000
00000000
00000000
00000000
00000000
00000000
00000000
00000000
00000000
0C0C0000
18060000
30030000
60018000
FFFFC000
FFFFC000
FFFFC000
60018000
30030000
18060000
0C0C0000
00000000
00000000
00000000
00000000
00000000
00000000
00000000
00000000
00000000
00000000
ENDCHAR
STARTCHAR C0018
ENCODING -1 24
SWIDTH 581 0
DWIDTH 18 0
BBX 25 31 0 -6
BITMAP
00000000
00000000
00000000
00000000
00000000
00000000
00000000
00000000
00000000
06000000
0C000000
18000000
30000000
60000000
FFFF0000
FFFF0000
60000000
30000000
18000000
0C000000
06000000
00000000
00000000
00000000
00000000
00000000
00000000
00000000
00000000
00000000
00000000
ENDCHAR
STARTCHAR C0019
ENCODING -1 25
SWIDTH 581 0
DWIDTH 18 0
BBX 25 31 0 -6
BITMAP
00000000
00000000
00000000
00000000
00000000
00000000
00000000
00000000
00000000
00600000
00300000
00180000
000C0000
00060000
FFFF0000
FFFF0000
00060000
000C0000
00180000
00300000
00600000
00000000
00000000
00000000
00000000
00000000
00000000
00000000
00000000
00000000
00000000
ENDCHAR
STARTCHAR C001A
ENCODING -1 26
SWIDTH 452 0
DWIDTH 14 0
BBX 25 31 0 -6
BITMAP
00000000
00000000
00000000
00000000
00200000
00600000
00600000
00E00000
00C00000
01800000
FFE00000
FFE00000
FFE00000
07000000
0E000000
FFE00000
FFE00000
FFE00000
30000000
60000000
E0000000
C0000000
C0000000
80000000
00000000
00000000
00000000
00000000
00000000
00000000
00000000
ENDCHAR
STARTCHAR C001B
ENCODING -1 27
SWIDTH 548 0
DWIDTH 17 0
BBX 25 31 0 -6
BITMAP
00000000
00000000
00000000
00000000
00000000
03000000
03000000
07800000
07800000
0FC00000
1FE00000
3CF00000
78780000
F03C0000
F03C0000
F03C0000
78780000
3CF00000
1FE00000
0FC00000
07800000
07800000
03000000
03000000
00000000
00000000
00000000
00000000
00000000
00000000
00000000
ENDCHAR
STARTCHAR C001C
ENCODING -1 28
SWIDTH 581 0
DWIDTH 18 0
BBX 25 31 0 -6
BITMAP
00000000
00000000
00000000
00000000
00000000
00000000
000E0000
003C0000
00F00000
03C00000
0F000000
3C000000
70000000
E0000000
E0000000
70000000
3C000000
8F000000
E3C00000
78F00000
1E3C0000
078E0000
01C00000
00000000
00000000
00000000
00000000
00000000
00000000
00000000
00000000
ENDCHAR
STARTCHAR C001D
ENCODING -1 29
SWIDTH 645 0
DWIDTH 20 0
BBX 25 31 0 -6
BITMAP
00000000
00000000
00000000
00000000
00000000
00000000
00000000
38000000
1E000000
07800000
01E00000
00780000
001E0000
00070000
00038000
00038000
00070000
001E0000
00788000
01E38000
078F0000
1E3C0000
38F00000
01C00000
00000000
00000000
00000000
00000000
00000000
00000000
00000000
ENDCHAR
STARTCHAR C001E
ENCODING -1 30
SWIDTH 452 0
DWIDTH 14 0
BBX 25 31 0 -6
BITMAP
00000000
00000000
00000000
00000000
00000000
00000000
00000000
FFE00000
FFE00000
00000000
00000000
00000000
FFE00000
FFE00000
00000000
00000000
00000000
FFE00000
FFE00000
00000000
00000000
00000000
00000000
00000000
00000000
00000000
00000000
00000000
00000000
00000000
00000000
ENDCHAR
STARTCHAR C001F
ENCODING -1 31
SWIDTH 710 0
DWIDTH 22 0
BBX 25 31 0 -6
BITMAP
00000000
00000000
00000000
00000000
00000000
00000000
00000000
00000000
00000000
E000E000
6000C000
7001C000
30018000
38038000
18030000
1C070000
0C060000
0E0E0000
060C0000
071C0000
03180000
03B80000
01B00000
01F00000
00E00000
00000000
00000000
00000000
00000000
00000000
00000000
ENDCHAR
STARTCHAR C0020
ENCODING -1 32
SWIDTH 355 0
DWIDTH 11 0
BBX 25 31 0 -6
BITMAP
00000000
00000000
00000000
00000000
00000000
00000000
00000000
00000000
00000000
00000000
00000000
00000000
00000000
00000000
00000000
00000000
00000000
00000000
00000000
00000000
00000000
00000000
00000000
00000000
00000000
00000000
00000000
00000000
00000000
00000000
00000000
ENDCHAR
STARTCHAR C0021
ENCODING -1 33
SWIDTH 258 0
DWIDTH 8 0
BBX 25 31 0 -6
BITMAP
00000000
00000000
00000000
30000000
78000000
78000000
78000000
78000000
78000000
78000000
78000000
30000000
30000000
30000000
30000000
30000000
00000000
00000000
00000000
00000000
00000000
30000000
78000000
78000000
30000000
00000000
00000000
00000000
00000000
00000000
00000000
ENDCHAR
STARTCHAR C0022
ENCODING -1 34
SWIDTH 419 0
DWIDTH 13 0
BBX 25 31 0 -6
BITMAP
00000000
00000000
00000000
71C00000
71C00000
71C00000
71C00000
71C00000
71C00000
71C00000
20800000
00000000
00000000
00000000
00000000
00000000
00000000
00000000
00000000
00000000
00000000
00000000
00000000
00000000
00000000
00000000
00000000
00000000
00000000
00000000
00000000
ENDCHAR
STARTCHAR C0023
ENCODING -1 35
SWIDTH 516 0
DWIDTH 16 0
BBX 25 31 0 -6
BITMAP
00000000
00000000
00000000
00000000
00000000
00000000
00000000
00000000
00000000
00000000
00000000
18C00000
18C00000
18C00000
FFF80000
FFF80000
18C00000
18C00000
18C00000
FFF80000
FFF80000
18C00000
18C00000
18C00000
00000000
00000000
00000000
00000000
00000000
00000000
00000000
ENDCHAR
STARTCHAR C0024
ENCODING -1 36
SWIDTH 484 0
DWIDTH 15 0
BBX 25 31 0 -6
BITMAP
00000000
0D800000
0D800000
1FC00000
3FE00000
6DB00000
6DB00000
6DB00000
6DB00000
6DB00000
6D800000
7D800000
7D800000
3F800000
1F800000
0FE00000
0DF00000
0DF00000
6DB00000
6DB00000
6DB00000
6DB00000
6DB00000
3FE00000
1FC00000
0D800000
0D800000
00000000
00000000
00000000
00000000
ENDCHAR
STARTCHAR C0025
ENCODING -1 37
SWIDTH 548 0
DWIDTH 17 0
BBX 25 31 0 -6
BITMAP
00000000
00000000
00000000
781C0000
FC380000
CC300000
CC700000
CC600000
FCE00000
78C00000
01C00000
01800000
03800000
03000000
07000000
06000000
0E000000
0C000000
1C780000
18FC0000
38CC0000
30CC0000
70CC0000
60FC0000
E0780000
00000000
00000000
00000000
00000000
00000000
00000000
ENDCHAR
STARTCHAR C0026
ENCODING -1 38
SWIDTH 710 0
DWIDTH 22 0
BBX 25 31 0 -6
BITMAP
00000000
00000000
03F00000
0FFC0000
0E3C0000
1C1E0000
1C1C0000
1E1C0000
1E380000
0F700000
0FC00000
0F83E000
3F81C000
7FC1C000
71E1C000
E0E1C000
E0F38000
E0738000
E07B0000
E03E0000
E01E0000
E01E0000
703F0000
7FF78000
1FC3C000
00000000
00000000
00000000
00000000
00000000
00000000
ENDCHAR
STARTCHAR C0027
ENCODING -1 39
SWIDTH 226 0
DWIDTH 7 0
BBX 25 31 0 -6
BITMAP
00000000
00000000
00000000
F8000000
F8000000
78000000
18000000
18000000
38000000
70000000
E0000000
00000000
00000000
00000000
00000000
00000000
00000000
00000000
00000000
00000000
00000000
00000000
00000000
00000000
00000000
00000000
00000000
00000000
00000000
00000000
00000000
ENDCHAR
STARTCHAR C0028
ENCODING -1 40
SWIDTH 323 0
DWIDTH 10 0
BBX 25 31 0 -6
BITMAP
00000000
02000000
06000000
0C000000
18000000
18000000
30000000
30000000
30000000
70000000
60000000
60000000
60000000
60000000
60000000
60000000
60000000
60000000
60000000
70000000
30000000
30000000
30000000
18000000
18000000
0C000000
06000000
02000000
00000000
00000000
00000000
ENDCHAR
STARTCHAR C0029
ENCODING -1 41
SWIDTH 323 0
DWIDTH 10 0
BBX 25 31 0 -6
BITMAP
00000000
40000000
60000000
30000000
18000000
18000000
0C000000
0C000000
0C000000
0E000000
06000000
06000000
06000000
06000000
06000000
06000000
06000000
06000000
06000000
0E000000
0C000000
0C000000
0C000000
18000000
18000000
30000000
60000000
40000000
00000000
00000000
00000000
ENDCHAR
STARTCHAR C002A
ENCODING -1 42
SWIDTH 645 0
DWIDTH 20 0
BBX 25 31 0 -6
BITMAP
00000000
00000000
00000000
00000000
00000000
00000000
01C00000
01C00000
E1C38000
F1C78000
79CF0000
1DDC0000
0FF80000
07F00000
01C00000
07F00000
0FF80000
1DDC0000
79CF0000
F1C78000
E1C38000
01C00000
01C00000
00000000
00000000
00000000
00000000
00000000
00000000
00000000
00000000
ENDCHAR
STARTCHAR C002B
ENCODING -1 43
SWIDTH 452 0
DWIDTH 14 0
BBX 25 31 0 -6
BITMAP
00000000
00000000
00000000
00000000
00000000
00000000
00000000
00000000
00000000
00000000
06000000
06000000
06000000
06000000
06000000
FFF00000
FFF00000
06000000
06000000
06000000
06000000
06000000
00000000
00000000
00000000
00000000
00000000
00000000
00000000
00000000
00000000
ENDCHAR
STARTCHAR C002C
ENCODING -1 44
SWIDTH 226 0
DWIDTH 7 0
BBX 25 31 0 -6
BITMAP
00000000
00000000
00000000
00000000
00000000
00000000
00000000
00000000
00000000
00000000
00000000
00000000
00000000
00000000
00000000
00000000
00000000
00000000
00000000
00000000
00000000
70000000
F8000000
F8000000
18000000
18000000
18000000
38000000
30000000
70000000
E0000000
ENDCHAR
STARTCHAR C002D
ENCODING -1 45
SWIDTH 452 0
DWIDTH 14 0
BBX 25 31 0 -6
BITMAP
00000000
00000000
00000000
00000000
00000000
00000000
00000000
00000000
00000000
00000000
00000000
00000000
00000000
00000000
00000000
FFF00000
FFF00000
00000000
00000000
00000000
00000000
00000000
00000000
00000000
00000000
00000000
00000000
00000000
00000000
00000000
00000000
ENDCHAR
STARTCHAR C002E
ENCODING -1 46
SWIDTH 194 0
DWIDTH 6 0
BBX 25 31 0 -6
BITMAP
00000000
00000000
00000000
00000000
00000000
00000000
00000000
00000000
00000000
00000000
00000000
00000000
00000000
00000000
00000000
00000000
00000000
00000000
00000000
00000000
00000000
F0000000
F0000000
F0000000
F0000000
00000000
00000000
00000000
00000000
00000000
00000000
ENDCHAR
STARTCHAR C002F
ENCODING -1 47
SWIDTH 645 0
DWIDTH 20 0
BBX 25 31 0 -6
BITMAP
00038000
00070000
00070000
000E0000
000E0000
001C0000
001C0000
00380000
00380000
00700000
00700000
00E00000
00E00000
01C00000
01C00000
03800000
03800000
07000000
07000000
0E000000
0E000000
1C000000
1C000000
38000000
38000000
70000000
70000000
E0000000
00000000
00000000
00000000
ENDCHAR
STARTCHAR C0030
ENCODING -1 48
SWIDTH 452 0
DWIDTH 14 0
BBX 25 31 0 -6
BITMAP
00000000
00000000
00000000
0E000000
3F800000
31800000
60C00000
60C00000
C1E00000
C1E00000
C3600000
C7600000
C6600000
CE600000
CC600000
DC600000
D8600000
F8600000
F0600000
E0600000
60C00000
60C00000
31800000
3F800000
0E000000
00000000
00000000
00000000
00000000
00000000
00000000
ENDCHAR
STARTCHAR C0031
ENCODING -1 49
SWIDTH 452 0
DWIDTH 14 0
BBX 25 31 0 -6
BITMAP
00000000
00000000
00000000
0E000000
1E000000
3E000000
7E000000
0E000000
0E000000
0E000000
0E000000
0E000000
0E000000
0E000000
0E000000
0E000000
0E000000
0E000000
0E000000
0E000000
0E000000
0E000000
0E000000
FFE00000
FFE00000
00000000
00000000
00000000
00000000
00000000
00000000
ENDCHAR
STARTCHAR C0032
ENCODING -1 50
SWIDTH 452 0
DWIDTH 14 0
BBX 25 31 0 -6
BITMAP
00000000
00000000
00000000
1F000000
3F800000
71800000
60C00000
60C00000
60C00000
60C00000
60C00000
70C00000
00C00000
00C00000
00C00000
01800000
03000000
06000000
0C000000
18000000
38200000
70200000
E0600000
FFE00000
FFE00000
00000000
00000000
00000000
00000000
00000000
00000000
ENDCHAR
STARTCHAR C0033
ENCODING -1 51
SWIDTH 452 0
DWIDTH 14 0
BBX 25 31 0 -6
BITMAP
00000000
00000000
00000000
0E000000
3F800000
70C00000
60C00000
60C00000
00C00000
00C00000
00C00000
01C00000
03800000
0F800000
0F800000
01C00000
00E00000
00600000
00600000
00600000
C0600000
C0600000
E0C00000
FFC00000
3F000000
00000000
00000000
00000000
00000000
00000000
00000000
ENDCHAR
STARTCHAR C0034
ENCODING -1 52
SWIDTH 452 0
DWIDTH 14 0
BBX 25 31 0 -6
BITMAP
00000000
00000000
00000000
01000000
01000000
03000000
03000000
07000000
07000000
0F000000
0F000000
1B000000
1B000000
33000000
33000000
63000000
63000000
C3200000
FFE00000
FFE00000
03200000
03000000
03000000
03000000
0FC00000
00000000
00000000
00000000
00000000
00000000
00000000
ENDCHAR
STARTCHAR C0035
ENCODING -1 53
SWIDTH 452 0
DWIDTH 14 0
BBX 25 31 0 -6
BITMAP
00000000
00000000
00000000
1F800000
3F800000
70800000
70000000
60000000
60000000
60000000
60000000
60000000
7C000000
7F000000
03800000
01C00000
00C00000
00600000
00600000
00600000
C0E00000
C0C00000
E1C00000
FF800000
7E000000
00000000
00000000
00000000
00000000
00000000
00000000
ENDCHAR
STARTCHAR C0036
ENCODING -1 54
SWIDTH 452 0
DWIDTH 14 0
BBX 25 31 0 -6
BITMAP
00000000
00000000
00000000
01E00000
0F800000
1E000000
38000000
70000000
70000000
E0000000
E0000000
E0000000
FF000000
FFC00000
E0C00000
E0600000
E0600000
E0600000
E0600000
E0600000
E0600000
60600000
70C00000
3FC00000
0F000000
00000000
00000000
00000000
00000000
00000000
00000000
ENDCHAR
STARTCHAR C0037
ENCODING -1 55
SWIDTH 452 0
DWIDTH 14 0
BBX 25 31 0 -6
BITMAP
00000000
00000000
00000000
7FE00000
7FE00000
E0600000
E0600000
C0600000
C0C00000
00C00000
00C00000
00C00000
01800000
01800000
01800000
01800000
01800000
01800000
03800000
03000000
03000000
03000000
03000000
03000000
03000000
00000000
00000000
00000000
00000000
00000000
00000000
ENDCHAR
STARTCHAR C0038
ENCODING -1 56
SWIDTH 452 0
DWIDTH 14 0
BBX 25 31 0 -6
BITMAP
00000000
00000000
00000000
0E000000
3F800000
71800000
60C00000
60C00000
60C00000
60C00000
60C00000
71C00000
31800000
3F800000
3F800000
71C00000
60C00000
E0E00000
E0E00000
E0E00000
E0E00000
E0E00000
60C00000
7FC00000
1F000000
00000000
00000000
00000000
00000000
00000000
00000000
ENDCHAR
STARTCHAR C0039
ENCODING -1 57
SWIDTH 452 0
DWIDTH 14 0
BBX 25 31 0 -6
BITMAP
00000000
00000000
00000000
1E000000
7F800000
61800000
C0C00000
C0C00000
C0E00000
C0E00000
C0E00000
C0E00000
C0E00000
7FE00000
3FE00000
00E00000
00E00000
00E00000
00E00000
01C00000
01C00000
03800000
0F000000
3E000000
F0000000
00000000
00000000
00000000
00000000
00000000
00000000
ENDCHAR
STARTCHAR C003A
ENCODING -1 58
SWIDTH 258 0
DWIDTH 8 0
BBX 25 31 0 -6
BITMAP
00000000
00000000
00000000
00000000
00000000
00000000
00000000
00000000
00000000
00000000
00000000
38000000
7C000000
7C000000
38000000
00000000
00000000
00000000
00000000
00000000
00000000
38000000
7C000000
7C000000
38000000
00000000
00000000
00000000
00000000
00000000
00000000
ENDCHAR
STARTCHAR C003B
ENCODING -1 59
SWIDTH 258 0
DWIDTH 8 0
BBX 25 31 0 -6
BITMAP
00000000
00000000
00000000
00000000
00000000
00000000
00000000
00000000
00000000
00000000
00000000
38000000
7C000000
7C000000
38000000
00000000
00000000
00000000
00000000
00000000
00000000
38000000
7C000000
7C000000
0C000000
0C000000
0C000000
1C000000
18000000
38000000
70000000
ENDCHAR
STARTCHAR C003C
ENCODING -1 60
SWIDTH 581 0
DWIDTH 18 0
BBX 25 31 0 -6
BITMAP
00000000
00000000
00000000
00000000
00000000
00000000
00000000
000E0000
003C0000
00F00000
03C00000
0F000000
3C000000
70000000
E0000000
E0000000
70000000
3C000000
0F000000
03C00000
00F00000
003C0000
000E0000
00000000
00000000
00000000
00000000
00000000
00000000
00000000
00000000
ENDCHAR
STARTCHAR C003D
ENCODING -1 61
SWIDTH 452 0
DWIDTH 14 0
BBX 25 31 0 -6
BITMAP
00000000
00000000
00000000
00000000
00000000
00000000
00000000
00000000
00000000
00000000
FFE00000
FFE00000
FFE00000
00000000
00000000
FFE00000
FFE00000
FFE00000
00000000
00000000
00000000
00000000
00000000
00000000
00000000
00000000
00000000
00000000
00000000
00000000
00000000
ENDCHAR
STARTCHAR C003E
ENCODING -1 62
SWIDTH 645 0
DWIDTH 20 0
BBX 25 31 0 -6
BITMAP
00000000
00000000
00000000
00000000
00000000
00000000
00000000
38000000
1E000000
07800000
01E00000
00780000
001E0000
00070000
00038000
00038000
00070000
001E0000
00780000
01E00000
07800000
1E000000
38000000
00000000
00000000
00000000
00000000
00000000
00000000
00000000
00000000
ENDCHAR
STARTCHAR C003F
ENCODING -1 63
SWIDTH 419 0
DWIDTH 13 0
BBX 25 31 0 -6
BITMAP
00000000
00000000
3F800000
7FC00000
E0E00000
E0E00000
E0E00000
E1E00000
01E00000
03E00000
07C00000
0F800000
0F000000
0E000000
0C000000
0C000000
0C000000
0C000000
00000000
00000000
00000000
0C000000
1E000000
1E000000
0C000000
00000000
00000000
00000000
00000000
00000000
00000000
ENDCHAR
STARTCHAR C0040
ENCODING -1 64
SWIDTH 710 0
DWIDTH 22 0
BBX 25 31 0 -6
BITMAP
00000000
00000000
00000000
00000000
00000000
03FC0000
0FFF0000
3FFF8000
3803C000
7001C000
60F0E000
E3FCE000
E31CE000
E60CE000
E60CE000
E60CE000
E60CE000
E60CC000
E31DC000
63FF0000
60FC6000
70006000
3801C000
1FFF0000
07FC0000
00000000
00000000
00000000
00000000
00000000
00000000
ENDCHAR
STARTCHAR C0041
ENCODING -1 65
SWIDTH 710 0
DWIDTH 22 0
BBX 25 31 0 -6
BITMAP
00000000
00000000
00000000
00400000
00600000
00600000
00E00000
00E00000
00F00000
01F00000
01F00000
01B80000
03380000
03180000
061C0000
061C0000
0C0E0000
0FFE0000
0FFE0000
1C070000
18070000
18030000
38038000
38038000
FE0FE000
00000000
00000000
00000000
00000000
00000000
00000000
ENDCHAR
STARTCHAR C0042
ENCODING -1 66
SWIDTH 548 0
DWIDTH 17 0
BBX 25 31 0 -6
BITMAP
00000000
00000000
00000000
FFC00000
1FF00000
1C300000
1C180000
1C180000
1C180000
1C180000
1C300000
1C700000
1FE00000
1FE00000
1FF00000
1C380000
1C180000
1C0C0000
1C0C0000
1C0C0000
1C0C0000
1C180000
1C380000
1FF00000
FFC00000
00000000
00000000
00000000
00000000
00000000
00000000
ENDCHAR
STARTCHAR C0043
ENCODING -1 67
SWIDTH 645 0
DWIDTH 20 0
BBX 25 31 0 -6
BITMAP
00000000
00000000
00000000
07F80000
1FFE0000
3C0F0000
38070000
70030000
60030000
E0000000
E0000000
E0000000
E0000000
E0000000
E0000000
E0000000
E0000000
E0000000
E0018000
60018000
70038000
38038000
1C078000
0FFF8000
03FF0000
00000000
00000000
00000000
00000000
00000000
00000000
ENDCHAR
STARTCHAR C0044
ENCODING -1 68
SWIDTH 710 0
DWIDTH 22 0
BBX 25 31 0 -6
BITMAP
00000000
00000000
00000000
FFF80000
3FFE0000
38070000
38038000
38038000
3801C000
3801C000
3800C000
3800E000
3800E000
3800E000
3800E000
3800E000
3800E000
3800C000
3801C000
3801C000
38038000
38038000
38070000
3FFE0000
FFF80000
00000000
00000000
00000000
00000000
00000000
00000000
ENDCHAR
STARTCHAR C0045
ENCODING -1 69
SWIDTH 581 0
DWIDTH 18 0
BBX 25 31 0 -6
BITMAP
00000000
00000000
00000000
FFFC0000
3FFC0000
380C0000
380C0000
38000000
38000000
38000000
38800000
38800000
39800000
3F800000
3F800000
39800000
38800000
38800000
38000000
38000000
38000000
38060000
38060000
3FFE0000
FFFE0000
00000000
00000000
00000000
00000000
00000000
00000000
ENDCHAR
STARTCHAR C0046
ENCODING -1 70
SWIDTH 548 0
DWIDTH 17 0
BBX 25 31 0 -6
BITMAP
00000000
00000000
00000000
FFFC0000
3FFC0000
380C0000
380C0000
38000000
38000000
38000000
38800000
38800000
39800000
3F800000
3F800000
39800000
38800000
38800000
38000000
38000000
38000000
38000000
38000000
38000000
FE000000
00000000
00000000
00000000
00000000
00000000
00000000
ENDCHAR
STARTCHAR C0047
ENCODING -1 71
SWIDTH 645 0
DWIDTH 20 0
BBX 25 31 0 -6
BITMAP
00000000
00000000
00000000
07F80000
1FFC0000
3C1C0000
780E0000
70060000
E0060000
E0060000
E0060000
E0000000
E0000000
E0000000
E0000000
E0000000
E0000000
E03FC000
E00F0000
E00E0000
E00E0000
700E0000
783C0000
3FF80000
0FF00000
00000000
00000000
00000000
00000000
00000000
00000000
ENDCHAR
STARTCHAR C0048
ENCODING -1 72
SWIDTH 613 0
DWIDTH 19 0
BBX 25 31 0 -6
BITMAP
00000000
00000000
00000000
FE3F8000
380E0000
380E0000
380E0000
380E0000
380E0000
380E0000
380E0000
380E0000
380E0000
3FFE0000
3FFE0000
380E0000
380E0000
380E0000
380E0000
380E0000
380E0000
380E0000
380E0000
380E0000
FE3F8000
00000000
00000000
00000000
00000000
00000000
00000000
ENDCHAR
STARTCHAR C0049
ENCODING -1 73
SWIDTH 290 0
DWIDTH 9 0
BBX 25 31 0 -6
BITMAP
00000000
00000000
00000000
FE000000
38000000
38000000
38000000
38000000
38000000
38000000
38000000
38000000
38000000
38000000
38000000
38000000
38000000
38000000
38000000
38000000
38000000
38000000
38000000
38000000
FE000000
00000000
00000000
00000000
00000000
00000000
00000000
ENDCHAR
STARTCHAR C004A
ENCODING -1 74
SWIDTH 419 0
DWIDTH 13 0
BBX 25 31 0 -6
BITMAP
00000000
00000000
00000000
0FE00000
03800000
03800000
03800000
03800000
03800000
03800000
03800000
03800000
03800000
03800000
03800000
03800000
03800000
03800000
03800000
03800000
03800000
03800000
03800000
E3800000
E3800000
FF000000
7E000000
00000000
00000000
00000000
00000000
ENDCHAR
STARTCHAR C004B
ENCODING -1 75
SWIDTH 613 0
DWIDTH 19 0
BBX 25 31 0 -6
BITMAP
00000000
00000000
00000000
FE3F8000
380E0000
381C0000
38380000
38700000
38E00000
39C00000
3B800000
3F000000
3E000000
3E000000
3E000000
3F000000
3B800000
39C00000
38E00000
38600000
38700000
38380000
38180000
381C0000
FE7F0000
00000000
00000000
00000000
00000000
00000000
00000000
ENDCHAR
STARTCHAR C004C
ENCODING -1 76
SWIDTH 548 0
DWIDTH 17 0
BBX 25 31 0 -6
BITMAP
00000000
00000000
00000000
FE000000
38000000
38000000
38000000
38000000
38000000
38000000
38000000
38000000
38000000
38000000
38000000
38000000
38000000
38000000
38000000
380C0000
380C0000
380C0000
381C0000
3FFC0000
FFFC0000
00000000
00000000
00000000
00000000
00000000
00000000
ENDCHAR
STARTCHAR C004D
ENCODING -1 77
SWIDTH 806 0
DWIDTH 25 0
BBX 25 31 0 -6
BITMAP
00000000
00000000
00000000
FF00FE00
3F00F800
3F00F800
3F81F800
3F81F800
3B83B800
3BC3B800
39C3B800
39C73800
39C73800
38E73800
38EF3800
38EE3800
386E3800
387E3800
387E3800
387E3800
383C3800
383C3800
38183800
38183800
FE18FE00
00000000
00000000
00000000
00000000
00000000
00000000
ENDCHAR
STARTCHAR C004E
ENCODING -1 78
SWIDTH 645 0
DWIDTH 20 0
BBX 25 31 0 -6
BITMAP
00000000
00000000
00000000
FC0F8000
7C070000
7E070000
7E070000
7F070000
77070000
77870000
73870000
73C70000
71C70000
71E70000
70E70000
70F70000
70770000
707F0000
703F0000
703F0000
701F0000
701F0000
700F0000
70070000
F80F8000
00000000
00000000
00000000
00000000
00000000
00000000
ENDCHAR
STARTCHAR C004F
ENCODING -1 79
SWIDTH 774 0
DWIDTH 24 0
BBX 25 31 0 -6
BITMAP
00000000
00000000
00000000
01FC0000
07FF0000
1F07C000
1C01C000
3800E000
30006000
70007000
60003000
60003000
E0003800
E0003800
E0003800
E0003800
60003000
60003000
70007000
30006000
3800E000
1C01C000
1F07C000
07FF0000
01FC0000
00000000
00000000
00000000
00000000
00000000
00000000
ENDCHAR
STARTCHAR C0050
ENCODING -1 80
SWIDTH 516 0
DWIDTH 16 0
BBX 25 31 0 -6
BITMAP
00000000
00000000
00000000
FFC00000
3FE00000
38700000
38380000
38380000
38380000
38380000
38380000
38380000
38700000
3FE00000
3FC00000
38000000
38000000
38000000
38000000
38000000
38000000
38000000
38000000
38000000
FE000000
00000000
00000000
00000000
00000000
00000000
00000000
ENDCHAR
STARTCHAR C0051
ENCODING -1 81
SWIDTH 774 0
DWIDTH 24 0
BBX 25 31 0 -6
BITMAP
00000000
00000000
00000000
01FC0000
07FF0000
1F07C000
1C01C000
3800E000
30006000
70007000
60003000
60003000
E0003800
E0003800
E0003800
E0003800
60003000
60003000
70007000
30006000
3800E000
1C01C000
1F07C000
07FF0000
01FC0000
00700000
00780000
003E0000
001FE000
0007E000
00000000
ENDCHAR
STARTCHAR C0052
ENCODING -1 82
SWIDTH 581 0
DWIDTH 18 0
BBX 25 31 0 -6
BITMAP
00000000
00000000
00000000
FFC00000
3FF00000
38700000
38380000
38380000
38380000
38380000
38300000
38700000
3FE00000
3FE00000
3FE00000
38E00000
38F00000
38700000
38780000
38380000
38380000
383C0000
381C0000
381C0000
FE1F0000
00000000
00000000
00000000
00000000
00000000
00000000
ENDCHAR
STARTCHAR C0053
ENCODING -1 83
SWIDTH 484 0
DWIDTH 15 0
BBX 25 31 0 -6
BITMAP
00000000
00000000
00000000
1F800000
7FE00000
F0F00000
E0700000
E0300000
E0300000
70000000
78000000
3C000000
1E000000
0F000000
07800000
03C00000
01E00000
00E00000
00700000
C0700000
C0700000
C0700000
E0E00000
7FC00000
3F800000
00000000
00000000
00000000
00000000
00000000
00000000
ENDCHAR
STARTCHAR C0054
ENCODING -1 84
SWIDTH 645 0
DWIDTH 20 0
BBX 25 31 0 -6
BITMAP
00000000
00000000
00000000
FFFF8000
F1C78000
E1C38000
C1C18000
81C08000
81C08000
01C00000
01C00000
01C00000
01C00000
01C00000
01C00000
01C00000
01C00000
01C00000
01C00000
01C00000
01C00000
01C00000
01C00000
01C00000
07F00000
00000000
00000000
00000000
00000000
00000000
00000000
ENDCHAR
STARTCHAR C0055
ENCODING -1 85
SWIDTH 677 0
DWIDTH 21 0
BBX 25 31 0 -6
BITMAP
00000000
00000000
00000000
7F07E000
1C018000
1C018000
1C018000
1C018000
1C018000
1C018000
1C018000
1C018000
1C018000
1C018000
1C018000
1C018000
1C018000
1C018000
1C018000
1C018000
1C018000
1C018000
1E038000
0FFF0000
07FE0000
00000000
00000000
00000000
00000000
00000000
00000000
ENDCHAR
STARTCHAR C0056
ENCODING -1 86
SWIDTH 677 0
DWIDTH 21 0
BBX 25 31 0 -6
BITMAP
00000000
00000000
00000000
7F07E000
1C018000
1C018000
1E018000
1E030000
0E030000
0E030000
0F070000
07060000
07060000
078E0000
038C0000
038C0000
01DC0000
01D80000
01F80000
00F80000
00F00000
00F00000
00700000
00600000
00600000
00000000
00000000
00000000
00000000
00000000
00000000
ENDCHAR
STARTCHAR C0057
ENCODING -1 87
SWIDTH 871 0
DWIDTH 27 0
BBX 25 31 0 -6
BITMAP
00000000
00000000
00000000
FEFBDF80
38730600
38730600
3C7B0600
3C7E0C00
1C3E0C00
1C3E0C00
1E3E1C00
0E1C1800
0E1C1800
0F1E3800
071E3000
071E3000
03BF7000
03B76000
03F7E000
01F3E000
01E3C000
01E3C000
00E1C000
00C18000
00C18000
00000000
00000000
00000000
00000000
00000000
00000000
ENDCHAR
STARTCHAR C0058
ENCODING -1 88
SWIDTH 645 0
DWIDTH 20 0
BBX 25 31 0 -6
BITMAP
00000000
00000000
00000000
FF0FC000
3C030000
1C030000
1E060000
0E060000
0F0C0000
07180000
07980000
03F00000
03F00000
01E00000
01E00000
01F00000
03F00000
03780000
06380000
063C0000
0C1C0000
181E0000
180E0000
380F0000
FE3FC000
00000000
00000000
00000000
00000000
00000000
00000000
ENDCHAR
STARTCHAR C0059
ENCODING -1 89
SWIDTH 613 0
DWIDTH 19 0
BBX 25 31 0 -6
BITMAP
00000000
00000000
00000000
FF1F8000
3C060000
1C060000
1E0C0000
0E0C0000
0F180000
07300000
07300000
03E00000
03E00000
01C00000
01C00000
01C00000
01C00000
01C00000
01C00000
01C00000
01C00000
01C00000
01C00000
01C00000
07F00000
00000000
00000000
00000000
00000000
00000000
00000000
ENDCHAR
STARTCHAR C005A
ENCODING -1 90
SWIDTH 613 0
DWIDTH 19 0
BBX 25 31 0 -6
BITMAP
00000000
00000000
00000000
FFFF0000
F00F0000
E01E0000
C01C0000
803C0000
00780000
00700000
00F00000
01E00000
01C00000
03C00000
07800000
07000000
0F000000
0E000000
1E000000
1C000000
38010000
78030000
70070000
F00F0000
FFFF0000
00000000
00000000
00000000
00000000
00000000
00000000
ENDCHAR
STARTCHAR C005B
ENCODING -1 91
SWIDTH 290 0
DWIDTH 9 0
BBX 25 31 0 -6
BITMAP
FE000000
FE000000
E0000000
C0000000
C0000000
C0000000
C0000000
C0000000
C0000000
C0000000
C0000000
C0000000
C0000000
C0000000
C0000000
C0000000
C0000000
C0000000
C0000000
C0000000
C0000000
C0000000
C0000000
C0000000
C0000000
E0000000
FE000000
FE000000
00000000
00000000
00000000
ENDCHAR
STARTCHAR C005C
ENCODING -1 92
SWIDTH 645 0
DWIDTH 20 0
BBX 25 31 0 -6
BITMAP
E0000000
70000000
70000000
38000000
38000000
1C000000
1C000000
0E000000
0E000000
07000000
07000000
03800000
03800000
01C00000
01C00000
00E00000
00E00000
00700000
00700000
00380000
00380000
001C0000
001C0000
000E0000
000E0000
00070000
00070000
00038000
00000000
00000000
00000000
ENDCHAR
STARTCHAR C005D
ENCODING -1 93
SWIDTH 290 0
DWIDTH 9 0
BBX 25 31 0 -6
BITMAP
FE000000
FE000000
0E000000
06000000
06000000
06000000
06000000
06000000
06000000
06000000
06000000
06000000
06000000
06000000
06000000
06000000
06000000
06000000
06000000
06000000
06000000
06000000
06000000
06000000
06000000
0E000000
FE000000
FE000000
00000000
00000000
00000000
ENDCHAR
STARTCHAR C005E
ENCODING -1 94
SWIDTH 0 0
DWIDTH 0 0
BBX 25 31 0 -6
BITMAP
00000000
00000000
00000000
00000000
00000000
00000000
00000000
00000000
00000000
00000000
00000000
00000000
00000000
00000000
00000000
00000000
00000000
00000000
00000000
00000000
00000000
00000000
00000000
00000000
00000000
00000000
00000000
00000000
00000000
00000000
00000000
ENDCHAR
STARTCHAR C005F
ENCODING -1 95
SWIDTH 484 0
DWIDTH 15 0
BBX 25 31 0 -6
BITMAP
00000000
00000000
00000000
00000000
00000000
00000000
00000000
00000000
00000000
00000000
00000000
00000000
00000000
00000000
00000000
00000000
00000000
00000000
00000000
00000000
00000000
00000000
00000000
00000000
00000000
FFFE0000
FFFE0000
00000000
00000000
00000000
00000000
ENDCHAR
STARTCHAR C0060
ENCODING -1 96
SWIDTH 226 0
DWIDTH 7 0
BBX 25 31 0 -6
BITMAP
00000000
00000000
00000000
38000000
70000000
E0000000
C0000000
C0000000
F0000000
F8000000
F8000000
00000000
00000000
00000000
00000000
00000000
00000000
00000000
00000000
00000000
00000000
00000000
00000000
00000000
00000000
00000000
00000000
00000000
00000000
00000000
00000000
ENDCHAR
STARTCHAR C0061
ENCODING -1 97
SWIDTH 419 0
DWIDTH 13 0
BBX 25 31 0 -6
BITMAP
00000000
00000000
00000000
00000000
00000000
00000000
00000000
00000000
00000000
00000000
00000000
3C000000
7E000000
C7000000
C3000000
03800000
03800000
1F800000
7F800000
73800000
C3800000
C3C00000
C3C00000
7FC00000
3EC00000
00000000
00000000
00000000
00000000
00000000
00000000
ENDCHAR
STARTCHAR C0062
ENCODING -1 98
SWIDTH 484 0
DWIDTH 15 0
BBX 25 31 0 -6
BITMAP
00000000
00000000
00000000
F0000000
70000000
70000000
70000000
70000000
70000000
70000000
70000000
73800000
7FE00000
7FE00000
78F00000
70700000
70700000
70700000
70700000
70700000
70700000
70700000
78E00000
7FE00000
FF800000
00000000
00000000
00000000
00000000
00000000
00000000
ENDCHAR
STARTCHAR C0063
ENCODING -1 99
SWIDTH 452 0
DWIDTH 14 0
BBX 25 31 0 -6
BITMAP
00000000
00000000
00000000
00000000
00000000
00000000
00000000
00000000
00000000
00000000
00000000
07000000
1FC00000
7FE00000
78E00000
F0E00000
E0000000
E0000000
E0000000
E0000000
E0000000
F0600000
78E00000
7FC00000
1F800000
00000000
00000000
00000000
00000000
00000000
00000000
ENDCHAR
STARTCHAR C0064
ENCODING -1 100
SWIDTH 484 0
DWIDTH 15 0
BBX 25 31 0 -6
BITMAP
00000000
00000000
00000000
00F00000
00E00000
00E00000
00E00000
00E00000
00E00000
00E00000
00E00000
1CE00000
7FE00000
7FE00000
F1E00000
E0E00000
E0E00000
E0E00000
E0E00000
E0E00000
E0E00000
E0E00000
71E00000
7FE00000
1FF00000
00000000
00000000
00000000
00000000
00000000
00000000
ENDCHAR
STARTCHAR C0065
ENCODING -1 101
SWIDTH 484 0
DWIDTH 15 0
BBX 25 31 0 -6
BITMAP
00000000
00000000
00000000
00000000
00000000
00000000
00000000
00000000
00000000
00000000
00000000
0F000000
3FC00000
38E00000
70600000
60700000
E0700000
FFF00000
FFE00000
E0000000
60000000
70300000
38600000
3FC00000
0F000000
00000000
00000000
00000000
00000000
00000000
00000000
ENDCHAR
STARTCHAR C0066
ENCODING -1 102
SWIDTH 355 0
DWIDTH 11 0
BBX 25 31 0 -6
BITMAP
00000000
00000000
00000000
1F000000
1B800000
33800000
31000000
30000000
70000000
70000000
70000000
70000000
FC000000
78000000
70000000
70000000
70000000
70000000
70000000
70000000
70000000
70000000
70000000
70000000
FC000000
00000000
00000000
00000000
00000000
00000000
00000000
ENDCHAR
STARTCHAR C0067
ENCODING -1 103
SWIDTH 452 0
DWIDTH 14 0
BBX 25 31 0 -6
BITMAP
00000000
00000000
00000000
00000000
00000000
00000000
00000000
00000000
00000000
00000000
00000000
3F700000
7FF00000
F3C00000
E1C00000
E1C00000
E1C00000
E1C00000
E1C00000
FF800000
7E000000
70000000
70000000
7FC00000
FFE00000
E0E00000
C0600000
E0E00000
7FC00000
1F000000
00000000
ENDCHAR
STARTCHAR C0068
ENCODING -1 104
SWIDTH 484 0
DWIDTH 15 0
BBX 25 31 0 -6
BITMAP
00000000
00000000
00000000
70000000
70000000
70000000
70000000
70000000
70000000
70000000
70000000
73800000
77C00000
7FC00000
78E00000
78600000
70700000
70700000
70700000
70700000
70700000
70700000
70700000
70700000
F8F80000
00000000
00000000
00000000
00000000
00000000
00000000
ENDCHAR
STARTCHAR C0069
ENCODING -1 105
SWIDTH 258 0
DWIDTH 8 0
BBX 25 31 0 -6
BITMAP
00000000
00000000
00000000
00000000
60000000
F0000000
60000000
00000000
00000000
00000000
00000000
F0000000
70000000
70000000
70000000
70000000
70000000
70000000
70000000
70000000
70000000
70000000
70000000
70000000
FC000000
00000000
00000000
00000000
00000000
00000000
00000000
ENDCHAR
STARTCHAR C006A
ENCODING -1 106
SWIDTH 323 0
DWIDTH 10 0
BBX 25 31 0 -6
BITMAP
00000000
00000000
00000000
00000000
0C000000
1E000000
0C000000
00000000
00000000
00000000
00000000
7E000000
0E000000
0E000000
0E000000
0E000000
0E000000
0E000000
0E000000
0E000000
0E000000
0E000000
0E000000
0E000000
0E000000
0E000000
8E000000
CC000000
DC000000
78000000
00000000
ENDCHAR
STARTCHAR C006B
ENCODING -1 107
SWIDTH 516 0
DWIDTH 16 0
BBX 25 31 0 -6
BITMAP
00000000
00000000
00000000
F8000000
70000000
70000000
70000000
70000000
70000000
70000000
70000000
70F80000
70700000
70E00000
71C00000
73800000
77000000
7E000000
7E000000
7F000000
73800000
71C00000
70E00000
70700000
F8FC0000
00000000
00000000
00000000
00000000
00000000
00000000
ENDCHAR
STARTCHAR C006C
ENCODING -1 108
SWIDTH 258 0
DWIDTH 8 0
BBX 25 31 0 -6
BITMAP
00000000
00000000
00000000
F0000000
70000000
70000000
70000000
70000000
70000000
70000000
70000000
70000000
70000000
70000000
70000000
70000000
70000000
70000000
70000000
70000000
70000000
70000000
70000000
78000000
FC000000
00000000
00000000
00000000
00000000
00000000
00000000
ENDCHAR
STARTCHAR C006D
ENCODING -1 109
SWIDTH 677 0
DWIDTH 21 0
BBX 25 31 0 -6
BITMAP
00000000
00000000
00000000
00000000
00000000
00000000
00000000
00000000
00000000
00000000
00000000
F38F0000
77FF8000
7EF18000
7CE1C000
78E1C000
70E1C000
70E1C000
70E1C000
70E1C000
70E1C000
70E1C000
70E1C000
70E1C000
F8E3E000
00000000
00000000
00000000
00000000
00000000
00000000
ENDCHAR
STARTCHAR C006E
ENCODING -1 110
SWIDTH 484 0
DWIDTH 15 0
BBX 25 31 0 -6
BITMAP
00000000
00000000
00000000
00000000
00000000
00000000
00000000
00000000
00000000
00000000
00000000
F7800000
7FC00000
7CE00000
78600000
78700000
70700000
70700000
70700000
70700000
70700000
70700000
70700000
70700000
F8F80000
00000000
00000000
00000000
00000000
00000000
00000000
ENDCHAR
STARTCHAR C006F
ENCODING -1 111
SWIDTH 516 0
DWIDTH 16 0
BBX 25 31 0 -6
BITMAP
00000000
00000000
00000000
00000000
00000000
00000000
00000000
00000000
00000000
00000000
00000000
07000000
1FC00000
3FE00000
78F00000
70700000
E0380000
E0380000
E0380000
E0380000
70700000
78F00000
3FE00000
1FC00000
07000000
00000000
00000000
00000000
00000000
00000000
00000000
ENDCHAR
STARTCHAR C0070
ENCODING -1 112
SWIDTH 452 0
DWIDTH 14 0
BBX 25 31 0 -6
BITMAP
00000000
00000000
00000000
00000000
00000000
00000000
00000000
00000000
00000000
00000000
00000000
E7000000
7FC00000
7FE00000
71E00000
70E00000
70E00000
70E00000
70E00000
70E00000
70E00000
79E00000
7FC00000
77800000
73000000
70000000
70000000
70000000
70000000
70000000
F8000000
ENDCHAR
STARTCHAR C0071
ENCODING -1 113
SWIDTH 452 0
DWIDTH 14 0
BBX 25 31 0 -6
BITMAP
00000000
00000000
00000000
00000000
00000000
00000000
00000000
00000000
00000000
00000000
00000000
1CE00000
7FC00000
FFC00000
F1C00000
E1C00000
E1C00000
E1C00000
E1C00000
E1C00000
E1C00000
F3C00000
7FC00000
3DC00000
19C00000
01C00000
01C00000
01C00000
01C00000
01C00000
03E00000
ENDCHAR
STARTCHAR C0072
ENCODING -1 114
SWIDTH 419 0
DWIDTH 13 0
BBX 25 31 0 -6
BITMAP
00000000
00000000
00000000
00000000
00000000
00000000
00000000
00000000
00000000
00000000
00000000
F1C00000
3FC00000
3FC00000
3C000000
38000000
38000000
38000000
38000000
38000000
38000000
38000000
38000000
38000000
FE000000
00000000
00000000
00000000
00000000
00000000
00000000
ENDCHAR
STARTCHAR C0073
ENCODING -1 115
SWIDTH 419 0
DWIDTH 13 0
BBX 25 31 0 -6
BITMAP
00000000
00000000
00000000
00000000
00000000
00000000
00000000
00000000
00000000
00000000
00000000
1E000000
7F800000
F1C00000
C0C00000
E0000000
70000000
3C000000
1F000000
07800000
01C00000
C0C00000
E1C00000
7F800000
1F000000
00000000
00000000
00000000
00000000
00000000
00000000
ENDCHAR
STARTCHAR C0074
ENCODING -1 116
SWIDTH 387 0
DWIDTH 12 0
BBX 25 31 0 -6
BITMAP
00000000
00000000
00000000
00000000
00000000
00000000
00000000
08000000
08000000
18000000
18000000
3C000000
FF000000
38000000
38000000
38000000
38000000
38000000
38000000
38000000
38000000
38C00000
1F800000
1F000000
0C000000
00000000
00000000
00000000
00000000
00000000
00000000
ENDCHAR
STARTCHAR C0075
ENCODING -1 117
SWIDTH 484 0
DWIDTH 15 0
BBX 25 31 0 -6
BITMAP
00000000
00000000
00000000
00000000
00000000
00000000
00000000
00000000
00000000
00000000
00000000
F0F00000
70700000
70700000
70700000
70700000
70700000
70700000
70700000
70700000
70F00000
30F00000
39F00000
1FF00000
0F780000
00000000
00000000
00000000
00000000
00000000
00000000
ENDCHAR
STARTCHAR C0076
ENCODING -1 118
SWIDTH 516 0
DWIDTH 16 0
BBX 25 31 0 -6
BITMAP
00000000
00000000
00000000
00000000
00000000
00000000
00000000
00000000
00000000
00000000
00000000
F83C0000
70180000
70300000
38300000
38600000
38600000
1C600000
1CC00000
1EC00000
0EC00000
07800000
07800000
03000000
03000000
00000000
00000000
00000000
00000000
00000000
00000000
ENDCHAR
STARTCHAR C0077
ENCODING -1 119
SWIDTH 742 0
DWIDTH 23 0
BBX 25 31 0 -6
BITMAP
00000000
00000000
00000000
00000000
00000000
00000000
00000000
00000000
00000000
00000000
00000000
F8007800
70203000
70606000
38706000
3870C000
3870C000
1CF8C000
1CF98000
1EDD8000
0EDD8000
078F0000
078F0000
03060000
03060000
00000000
00000000
00000000
00000000
00000000
00000000
ENDCHAR
STARTCHAR C0078
ENCODING -1 120
SWIDTH 484 0
DWIDTH 15 0
BBX 25 31 0 -6
BITMAP
00000000
00000000
00000000
00000000
00000000
00000000
00000000
00000000
00000000
00000000
00000000
F8F80000
70700000
30600000
38C00000
1DC00000
0F800000
07000000
07000000
0F800000
19800000
18C00000
30E00000
70600000
F8F00000
00000000
00000000
00000000
00000000
00000000
00000000
ENDCHAR
STARTCHAR C0079
ENCODING -1 121
SWIDTH 516 0
DWIDTH 16 0
BBX 25 31 0 -6
BITMAP
00000000
00000000
00000000
00000000
00000000
00000000
00000000
00000000
00000000
00000000
00000000
F83C0000
70180000
70300000
30300000
38300000
38200000
1C600000
1C600000
0EC00000
0FC00000
07C00000
07800000
07800000
07000000
06000000
06000000
0C000000
78000000
70000000
00000000
ENDCHAR
STARTCHAR C007A
ENCODING -1 122
SWIDTH 452 0
DWIDTH 14 0
BBX 25 31 0 -6
BITMAP
00000000
00000000
00000000
00000000
00000000
00000000
00000000
00000000
00000000
00000000
00000000
FFC00000
FFC00000
C3800000
87000000
07000000
0E000000
0E000000
1C000000
1C000000
38200000
38200000
70600000
FFE00000
FFE00000
00000000
00000000
00000000
00000000
00000000
00000000
ENDCHAR
STARTCHAR C007B
ENCODING -1 123
SWIDTH 419 0
DWIDTH 13 0
BBX 25 31 0 -6
BITMAP
03C00000
07000000
0C000000
1C000000
1C000000
1C000000
1C000000
0C000000
0C000000
0C000000
0C000000
08000000
18000000
30000000
70000000
70000000
30000000
18000000
08000000
0C000000
0C000000
0C000000
0C000000
1C000000
1C000000
1C000000
1C000000
0C000000
07000000
03C00000
00000000
ENDCHAR
STARTCHAR C007C
ENCODING -1 124
SWIDTH 226 0
DWIDTH 7 0
BBX 25 31 0 -6
BITMAP
30000000
30000000
30000000
30000000
30000000
30000000
30000000
30000000
30000000
30000000
30000000
30000000
30000000
30000000
30000000
30000000
30000000
30000000
30000000
30000000
30000000
30000000
30000000
30000000
30000000
30000000
30000000
30000000
30000000
30000000
00000000
ENDCHAR
STARTCHAR C007D
ENCODING -1 125
SWIDTH 419 0
DWIDTH 13 0
BBX 25 31 0 -6
BITMAP
78000000
1C000000
06000000
07000000
07000000
07000000
07000000
06000000
06000000
06000000
06000000
02000000
03000000
01800000
01C00000
01C00000
01800000
03000000
02000000
06000000
06000000
06000000
06000000
07000000
07000000
07000000
07000000
06000000
1C000000
78000000
00000000
ENDCHAR
STARTCHAR C007E
ENCODING -1 126
SWIDTH 645 0
DWIDTH 20 0
BBX 25 31 0 -6
BITMAP
00000000
00000000
00000000
00000000
00000000
00000000
00000000
00000000
00000000
00000000
00000000
0E008000
1F018000
3F818000
7FC30000
61FF0000
C0FE0000
C07C0000
80380000
00000000
00000000
00000000
00000000
00000000
00000000
00000000
00000000
00000000
00000000
00000000
00000000
ENDCHAR
STARTCHAR C007F
ENCODING -1 127
SWIDTH 32 0
DWIDTH 1 0
BBX 25 31 0 -6
BITMAP
00000000
00000000
00000000
00000000
00000000
00000000
00000000
00000000
00000000
00000000
00000000
00000000
00000000
00000000
00000000
00000000
00000000
00000000
00000000
00000000
00000000
00000000
00000000
00000000
00000000
00000000
00000000
00000000
00000000
00000000
00000000
ENDCHAR
ENDFONT
